<svg xmlns="http://www.w3.org/2000/svg" version="1.1" xmlns:xlink="http://www.w3.org/1999/xlink" xmlns:svgjs="http://svgjs.dev/svgjs" width="1000" height="1000" viewBox="0 0 1000 1000"><rect width="1000" height="1000" fill="#ffffff"></rect><g transform="matrix(0.7,0,0,0.7,149.57575757575756,282.1265587044535)"><svg viewBox="0 0 396 247" data-background-color="#046380" preserveAspectRatio="xMidYMid meet" height="623" width="1000" xmlns="http://www.w3.org/2000/svg" xmlns:xlink="http://www.w3.org/1999/xlink"><g id="tight-bounds" transform="matrix(1,0,0,1,0.2400000000000091,-0.09999999999999432)"><svg viewBox="0 0 395.52 247.2" height="247.2" width="395.52"><g><svg></svg></g><g><svg viewBox="0 0 395.52 247.2" height="247.2" width="395.52"><g transform="matrix(1,0,0,1,39.55199999999999,104.43930444896772)"><svg viewBox="0 0 316.416 38.321391102064545" height="38.321391102064545" width="316.416"><g><svg viewBox="0 0 316.416 38.321391102064545" height="38.321391102064545" width="316.416"><g><svg viewBox="0 0 316.416 38.321391102064545" height="38.321391102064545" width="316.416"><g><svg viewBox="0 0 316.416 38.321391102064545" height="38.321391102064545" width="316.416"><g id="textblocktransform"><svg viewBox="0 0 316.416 38.321391102064545" height="38.321391102064545" width="316.416" id="textblock"><g><svg viewBox="0 0 316.416 38.321391102064545" height="38.321391102064545" width="316.416"><g transform="matrix(1,0,0,1,0,0)"><svg width="316.416" viewBox="2.0999999046325684 -33.400001525878906 343.8699951171875 41.650001525878906" height="38.321391102064545" data-palette-color="#ffffff"><path d="M13.6 0.6L13.6 0.6Q10.15 0.6 7.2-0.7 4.25-2 2.1-4.25L2.1-4.25 4.6-7.15Q6.35-5.3 8.72-4.17 11.1-3.05 13.65-3.05L13.65-3.05Q16.9-3.05 18.7-4.53 20.5-6 20.5-8.4L20.5-8.4Q20.5-9.65 20.08-10.53 19.65-11.4 18.93-12.03 18.2-12.65 17.2-13.15 16.2-13.65 15.05-14.2L15.05-14.2 10.35-16.25Q9.2-16.75 8-17.45 6.8-18.15 5.85-19.15 4.9-20.15 4.3-21.53 3.7-22.9 3.7-24.7L3.7-24.7Q3.7-26.55 4.48-28.15 5.25-29.75 6.63-30.93 8-32.1 9.88-32.75 11.75-33.4 14-33.4L14-33.4Q16.95-33.4 19.45-32.27 21.95-31.15 23.7-29.35L23.7-29.35 21.45-26.65Q19.95-28.1 18.13-28.93 16.3-29.75 14-29.75L14-29.75Q11.25-29.75 9.58-28.48 7.9-27.2 7.9-24.95L7.9-24.95Q7.9-23.75 8.38-22.93 8.85-22.1 9.65-21.48 10.45-20.85 11.4-20.38 12.35-19.9 13.35-19.5L13.35-19.5 18-17.5Q19.4-16.9 20.65-16.13 21.9-15.35 22.8-14.33 23.7-13.3 24.23-11.93 24.75-10.55 24.75-8.75L24.75-8.75Q24.75-6.8 23.98-5.1 23.2-3.4 21.75-2.13 20.3-0.85 18.25-0.13 16.2 0.6 13.6 0.6ZM35.35 0L31.2 0 31.2-32.8 35.35-32.8 35.35-19.05 50.6-19.05 50.6-32.8 54.8-32.8 54.8 0 50.6 0 50.6-15.45 35.35-15.45 35.35 0ZM75.45 0.6L75.45 0.6Q72.95 0.6 70.77-0.13 68.59-0.85 67.02-2.53 65.45-4.2 64.55-6.9 63.65-9.6 63.65-13.55L63.65-13.55 63.65-32.8 67.8-32.8 67.8-13.45Q67.8-10.5 68.39-8.5 69-6.5 70.02-5.3 71.05-4.1 72.45-3.58 73.84-3.05 75.45-3.05L75.45-3.05Q77.09-3.05 78.5-3.58 79.9-4.1 80.95-5.3 82-6.5 82.59-8.5 83.2-10.5 83.2-13.45L83.2-13.45 83.2-32.8 87.2-32.8 87.2-13.55Q87.2-9.6 86.3-6.9 85.4-4.2 83.82-2.53 82.25-0.85 80.09-0.13 77.95 0.6 75.45 0.6ZM107.04 0L102.84 0 102.84-29.3 92.94-29.3 92.94-32.8 116.94-32.8 116.94-29.3 107.04-29.3 107.04 0ZM133.84 0L129.64 0 129.64-29.3 119.74-29.3 119.74-32.8 143.74-32.8 143.74-29.3 133.84-29.3 133.84 0ZM169.04 0L149.64 0 149.64-32.8 168.54-32.8 168.54-29.3 153.79-29.3 153.79-19 166.24-19 166.24-15.45 153.79-15.45 153.79-3.55 169.04-3.55 169.04 0ZM180.14 0L175.99 0 175.99-32.8 186.24-32.8Q188.74-32.8 190.86-32.33 192.99-31.85 194.51-30.75 196.04-29.65 196.89-27.9 197.74-26.15 197.74-23.6L197.74-23.6Q197.74-19.75 195.74-17.45 193.74-15.15 190.34-14.3L190.34-14.3 198.69 0 193.99 0 186.09-13.85 180.14-13.85 180.14 0ZM180.14-29.45L180.14-17.25 185.64-17.25Q189.49-17.25 191.54-18.82 193.59-20.4 193.59-23.6L193.59-23.6Q193.59-26.85 191.54-28.15 189.49-29.45 185.64-29.45L185.64-29.45 180.14-29.45ZM212.83 0.6L212.83 0.6Q209.38 0.6 206.43-0.7 203.48-2 201.33-4.25L201.33-4.25 203.83-7.15Q205.58-5.3 207.96-4.17 210.33-3.05 212.88-3.05L212.88-3.05Q216.13-3.05 217.93-4.53 219.73-6 219.73-8.4L219.73-8.4Q219.73-9.65 219.31-10.53 218.88-11.4 218.16-12.03 217.43-12.65 216.43-13.15 215.43-13.65 214.28-14.2L214.28-14.2 209.58-16.25Q208.43-16.75 207.23-17.45 206.03-18.15 205.08-19.15 204.13-20.15 203.53-21.53 202.93-22.9 202.93-24.7L202.93-24.7Q202.93-26.55 203.71-28.15 204.48-29.75 205.86-30.93 207.23-32.1 209.11-32.75 210.98-33.4 213.23-33.4L213.23-33.4Q216.18-33.4 218.68-32.27 221.18-31.15 222.93-29.35L222.93-29.35 220.68-26.65Q219.18-28.1 217.36-28.93 215.53-29.75 213.23-29.75L213.23-29.75Q210.48-29.75 208.81-28.48 207.13-27.2 207.13-24.95L207.13-24.95Q207.13-23.75 207.61-22.93 208.08-22.1 208.88-21.48 209.68-20.85 210.63-20.38 211.58-19.9 212.58-19.5L212.58-19.5 217.23-17.5Q218.63-16.9 219.88-16.13 221.13-15.35 222.03-14.33 222.93-13.3 223.46-11.93 223.98-10.55 223.98-8.75L223.98-8.75Q223.98-6.8 223.21-5.1 222.43-3.4 220.98-2.13 219.53-0.85 217.48-0.13 215.43 0.6 212.83 0.6ZM242.53-2.85L242.53-2.85Q244.73-2.85 246.5-3.8 248.28-4.75 249.56-6.55 250.83-8.35 251.53-10.88 252.23-13.4 252.23-16.55L252.23-16.55Q252.23-19.6 251.53-22.05 250.83-24.5 249.56-26.2 248.28-27.9 246.5-28.83 244.73-29.75 242.53-29.75L242.53-29.75Q240.33-29.75 238.56-28.83 236.78-27.9 235.5-26.2 234.23-24.5 233.53-22.05 232.83-19.6 232.83-16.55L232.83-16.55Q232.83-13.4 233.53-10.88 234.23-8.35 235.5-6.55 236.78-4.75 238.56-3.8 240.33-2.85 242.53-2.85ZM252.58 8.25L252.58 8.25Q250.33 8.25 248.41 7.68 246.48 7.1 244.96 6.05 243.43 5 242.31 3.58 241.18 2.15 240.48 0.45L240.48 0.45Q237.78 0.1 235.58-1.25 233.38-2.6 231.81-4.8 230.23-7 229.38-9.98 228.53-12.95 228.53-16.55L228.53-16.55Q228.53-20.5 229.56-23.63 230.58-26.75 232.43-28.93 234.28-31.1 236.86-32.25 239.43-33.4 242.53-33.4L242.53-33.4Q245.63-33.4 248.21-32.23 250.78-31.05 252.66-28.88 254.53-26.7 255.56-23.58 256.58-20.45 256.58-16.55L256.58-16.55Q256.58-13 255.75-10.08 254.93-7.15 253.41-4.98 251.88-2.8 249.73-1.43 247.58-0.05 244.98 0.4L244.98 0.4Q246.13 2.6 248.23 3.68 250.33 4.75 253.03 4.75L253.03 4.75Q254.13 4.75 254.96 4.63 255.78 4.5 256.48 4.3L256.48 4.3 257.28 7.5Q256.53 7.8 255.28 8.03 254.03 8.25 252.58 8.25ZM275.28 0.6L275.28 0.6Q272.78 0.6 270.6-0.13 268.43-0.85 266.85-2.53 265.28-4.2 264.38-6.9 263.48-9.6 263.48-13.55L263.48-13.55 263.48-32.8 267.63-32.8 267.63-13.45Q267.63-10.5 268.23-8.5 268.83-6.5 269.85-5.3 270.88-4.1 272.28-3.58 273.68-3.05 275.28-3.05L275.28-3.05Q276.93-3.05 278.33-3.58 279.73-4.1 280.78-5.3 281.83-6.5 282.43-8.5 283.03-10.5 283.03-13.45L283.03-13.45 283.03-32.8 287.03-32.8 287.03-13.55Q287.03-9.6 286.13-6.9 285.23-4.2 283.65-2.53 282.08-0.85 279.93-0.13 277.78 0.6 275.28 0.6ZM300.72-18.35L300.72-18.35 299.18-13.35 309.02-13.35 307.47-18.35Q306.57-21.1 305.77-23.83 304.97-26.55 304.18-29.4L304.18-29.4 303.97-29.4Q303.22-26.55 302.43-23.83 301.63-21.1 300.72-18.35ZM294.97 0L290.72 0 301.82-32.8 306.52-32.8 317.63 0 313.18 0 310.07-10 298.13-10 294.97 0ZM330.67 0L322.27 0 322.27-32.8 330.47-32.8Q338.07-32.8 342.02-28.6 345.97-24.4 345.97-16.55L345.97-16.55Q345.97-12.65 344.97-9.58 343.97-6.5 342.02-4.38 340.07-2.25 337.22-1.13 334.37 0 330.67 0L330.67 0ZM326.42-29.4L326.42-3.4 330.17-3.4Q335.92-3.4 338.8-6.85 341.67-10.3 341.67-16.55L341.67-16.55Q341.67-22.8 338.8-26.1 335.92-29.4 330.17-29.4L330.17-29.4 326.42-29.4Z" opacity="1" transform="matrix(1,0,0,1,0,0)" fill="#000000" class="undefined-text-0" data-fill-palette-color="primary" id="text-0"></path></svg></g></svg></g></svg></g></svg></g></svg></g></svg></g></svg></g><g mask="url(#a267e280-eef3-4274-a8e7-02e78ddb5617)"><g transform="matrix(5.108333333333333, 0, 0, 5.108333333333333, 75.16, 1)"><svg xmlns="http://www.w3.org/2000/svg" xmlns:xlink="http://www.w3.org/1999/xlink" version="1.1" x="0" y="0" viewBox="0 0 48 48" enable-background="new 0 0 48 48" xml:space="preserve" height="48" width="48" class="icon-none" data-fill-palette-color="accent" id="none"><g fill="#ffffff" data-fill-palette-color="accent"><path d="M24 48C10.767 48 0 37.233 0 24S10.767 0 24 0s24 10.767 24 24S37.233 48 24 48zM24 2C11.869 2 2 11.869 2 24s9.869 22 22 22 22-9.869 22-22S36.131 2 24 2z" fill="#000000" data-fill-palette-color="accent"></path><path d="M27.798 31.578h-7.595c-0.357 0-0.688-0.19-0.866-0.5L15.54 24.5c-0.178-0.31-0.178-0.69 0-1l3.797-6.578c0.179-0.31 0.509-0.5 0.866-0.5h7.595c0.357 0 0.688 0.191 0.866 0.5L32.46 23.5c0.179 0.31 0.179 0.69 0 1l-3.796 6.578C28.485 31.388 28.155 31.578 27.798 31.578zM20.781 29.578h6.44L30.439 24l-3.219-5.578h-6.44L17.561 24 20.781 29.578z" fill="#000000" data-fill-palette-color="accent"></path><path d="M27.889 18.422H2.051c-0.552 0-1-0.448-1-1s0.448-1 1-1h25.838c0.553 0 1 0.448 1 1S28.441 18.422 27.889 18.422z" fill="#000000" data-fill-palette-color="accent"></path><path d="M45.95 31.578H20.112c-0.552 0-1-0.447-1-1s0.448-1 1-1H45.95c0.553 0 1 0.447 1 1S46.503 31.578 45.95 31.578z" fill="#000000" data-fill-palette-color="accent"></path><path d="M31.517 25.043c-0.354 0-0.697-0.188-0.879-0.521L18.395 2.058c-0.265-0.485-0.085-1.092 0.399-1.356 0.485-0.265 1.093-0.085 1.356 0.399l12.243 22.464c0.265 0.485 0.086 1.093-0.399 1.356C31.842 25.004 31.678 25.043 31.517 25.043z" fill="#000000" data-fill-palette-color="accent"></path><path d="M28.728 47.421c-0.354 0-0.697-0.188-0.879-0.521L15.633 24.482c-0.265-0.485-0.085-1.092 0.399-1.356 0.484-0.265 1.093-0.085 1.356 0.399l12.216 22.417c0.265 0.485 0.086 1.093-0.399 1.356C29.053 47.382 28.889 47.421 28.728 47.421z" fill="#000000" data-fill-palette-color="accent"></path><path d="M27.888 31.239c-0.178 0-0.358-0.048-0.521-0.147-0.471-0.288-0.619-0.904-0.33-1.375L40.221 8.194c0.288-0.47 0.902-0.62 1.375-0.33 0.471 0.288 0.619 0.904 0.33 1.375L28.741 30.762C28.553 31.069 28.225 31.239 27.888 31.239z" fill="#000000" data-fill-palette-color="accent"></path><path d="M6.904 40.302c-0.178 0-0.358-0.048-0.521-0.147-0.471-0.288-0.619-0.904-0.33-1.375l13.207-21.557c0.289-0.47 0.904-0.618 1.375-0.33 0.471 0.289 0.619 0.904 0.33 1.375L7.757 39.824C7.569 40.132 7.24 40.302 6.904 40.302z" fill="#000000" data-fill-palette-color="accent"></path></g></svg></g></g></svg></g><defs><mask id="8ae2b873-d4cf-48d2-8d74-39bb0b338423"><rect width="640" height="400" fill="white"></rect><rect width="348.05760000000004" height="56.41491255368653" fill="black" x="145.97119999999998" y="171.79254372315674" id="transform-me" transform="matrix(1,0,0,1,-122.24000000000001,-76.4)"></rect></mask><mask id="e9040d6e-7a7d-494e-8deb-8ca361471ace"><rect width="640" height="400" fill="white"></rect><rect width="348.05760000000004" height="56.41491255368653" fill="black" x="145.97119999999998" y="171.79254372315674" id="transform-me" transform="matrix(1,0,0,1,-122.24000000000001,-76.4)"></rect></mask><mask id="a267e280-eef3-4274-a8e7-02e78ddb5617"><rect width="640" height="400" fill="white"></rect><rect width="348.05760000000004" height="56.41491255368653" fill="black" x="145.97119999999998" y="171.79254372315674" id="transform-me" transform="matrix(1,0,0,1,-122.24000000000001,-76.4)"></rect></mask></defs></svg><rect width="395.52" height="247.2" fill="none" stroke="none" visibility="hidden"></rect></g></svg></g></svg>